<svg width="129" height="117" viewBox="0 0 129 117" fill="none" xmlns="http://www.w3.org/2000/svg">
<g filter="url(#filter0_i_477_1229)">
<rect width="129" height="117" rx="32" fill="#C3B107"/>
</g>
<g filter="url(#filter1_i_477_1229)">
<path d="M78.8828 82.1875C71.8555 82.1875 63.9531 79.6719 57.6094 75.4883C54.082 78.6328 49.4609 80.1914 44.8125 80.1914C35.4062 80.1914 26 73.7383 26 60.7773C26 44.918 37.5938 38.082 50.3359 38.082H50.4453C57.4453 38.082 64.7734 40.1328 70.6797 43.8789C74.5352 40.3242 79.1836 38.6836 83.75 38.6836C93.7578 38.6836 103.328 46.4766 103.328 58.8906C103.328 71.1133 95.0703 79.0156 84.8164 81.5312C82.957 81.9961 80.9609 82.1875 78.8828 82.1875ZM73.1133 78.1406C76.1758 78.1406 79.2656 77.457 82.1914 75.9531C88.125 72.8906 93.0469 67.2305 95.2344 60.3398C96.3008 57.0039 96.7656 54.1875 96.7656 51.8359C96.7656 45.1367 93.0469 42.1289 88.6445 42.1289C84.5977 42.1289 79.9492 44.6445 77.0781 49.1289C80.6602 52.9844 82.3281 58.5625 82.3281 63.5117C82.3281 69.5273 79.8672 74.6406 75.3555 74.6406C74.2344 74.6406 73.0039 74.3398 71.6641 73.6562C67.043 71.332 64.6367 64.6875 64.6367 58.7539C64.6367 53.4219 66.25 49.1289 68.7656 45.9023C64.6094 42.9219 60.2344 41.5547 56.0234 41.5547H55.9141C46.2891 41.5547 37.5391 48.6367 34.1211 59.3555C33.1094 62.5547 32.6445 65.3711 32.6445 67.75C32.6445 74.2305 35.9805 77.6484 40.1914 77.6484C40.4102 77.6484 40.6562 77.6484 40.875 77.6211C44.9766 77.2656 48.5312 74.1758 51.2383 70.0742C47.6562 66.1367 45.9883 60.5039 45.9883 55.5547C45.9883 49.5938 48.3945 44.5898 52.7969 44.5898C53.9453 44.5898 55.2578 44.9453 56.6797 45.7109C61.2461 48.1445 63.6523 54.8438 63.6523 60.7773C63.6523 66.1094 62.0664 70.3477 59.5234 73.4922C63.3789 76.3906 68.1914 78.1406 73.1133 78.1406ZM53.3164 66.4102C54.957 63.0469 56.1055 59.3555 56.6523 56.0469C56.9805 54.2422 57.1172 52.793 57.1172 51.6719C57.1172 49.457 56.5977 48.5273 55.8867 48.5273H55.8594C54.2188 48.5273 51.5391 53.3125 51.5391 58.9453C51.5391 61.3789 52.0312 63.9766 53.3164 66.4102ZM72.4297 70.8125C74.0703 70.8125 76.8047 65.918 76.8047 60.2305C76.8047 57.8242 76.2852 55.2539 75 52.8477C73.3594 56.2383 72.2109 59.957 71.6641 63.293C71.3359 65.125 71.1992 66.5742 71.1992 67.6953C71.1992 69.8828 71.7188 70.8125 72.4297 70.8125Z" fill="white"/>
</g>
<defs>
<filter id="filter0_i_477_1229" x="0" y="0" width="133" height="122" filterUnits="userSpaceOnUse" color-interpolation-filters="sRGB">
<feFlood flood-opacity="0" result="BackgroundImageFix"/>
<feBlend mode="normal" in="SourceGraphic" in2="BackgroundImageFix" result="shape"/>
<feColorMatrix in="SourceAlpha" type="matrix" values="0 0 0 0 0 0 0 0 0 0 0 0 0 0 0 0 0 0 127 0" result="hardAlpha"/>
<feOffset dx="4" dy="8"/>
<feGaussianBlur stdDeviation="2.5"/>
<feComposite in2="hardAlpha" operator="arithmetic" k2="-1" k3="1"/>
<feColorMatrix type="matrix" values="0 0 0 0 0 0 0 0 0 0 0 0 0 0 0 0 0 0 0.25 0"/>
<feBlend mode="normal" in2="shape" result="effect1_innerShadow_477_1229"/>
</filter>
<filter id="filter1_i_477_1229" x="26" y="38.082" width="77.3281" height="48.1055" filterUnits="userSpaceOnUse" color-interpolation-filters="sRGB">
<feFlood flood-opacity="0" result="BackgroundImageFix"/>
<feBlend mode="normal" in="SourceGraphic" in2="BackgroundImageFix" result="shape"/>
<feColorMatrix in="SourceAlpha" type="matrix" values="0 0 0 0 0 0 0 0 0 0 0 0 0 0 0 0 0 0 127 0" result="hardAlpha"/>
<feOffset dy="4"/>
<feGaussianBlur stdDeviation="2"/>
<feComposite in2="hardAlpha" operator="arithmetic" k2="-1" k3="1"/>
<feColorMatrix type="matrix" values="0 0 0 0 0 0 0 0 0 0 0 0 0 0 0 0 0 0 0.25 0"/>
<feBlend mode="normal" in2="shape" result="effect1_innerShadow_477_1229"/>
</filter>
</defs>
</svg>
